<svg xmlns="http://www.w3.org/2000/svg" viewBox="0 -2048 2048 2048">
	<path fill="#000000" d="M708 -1425H1254V-1693H1402V-1425H1672Q1604 -1525 1520 -1625L1644 -1711Q1740 -1601 1824 -1491L1730 -1425H2008V-1281H1402V-1091H1916V39Q1916 245 1710 247Q1608 247 1498 243Q1488 177 1468 89Q1590 101 1664 101Q1768 101 1768 -3V-205H1402V239H1254V-205H918V261H770V-1091H1254V-1281H708V-1425ZM180 -1005H634V-867H430V-621H692V-483H430V-13Q548 -91 654 -167Q670 -75 686 -9Q600 45 432 165Q396 191 326 255L220 123Q288 69 288 -33V-483H46V-621H288V-867H180V-1005ZM288 -1257Q208 -1069 122 -929Q78 -991 18 -1063Q204 -1353 272 -1687L422 -1653Q386 -1519 342 -1395H656V-1257H288ZM1402 -345H1768V-579H1402V-345ZM1768 -951H1402V-719H1768V-951ZM918 -345H1254V-579H918V-345ZM918 -719H1254V-951H918V-719Z"/>
</svg>