<svg xmlns="http://www.w3.org/2000/svg" viewBox="0 -2048 2048 2048">
	<path fill="#000000" d="M386 261H230V-867H946V-1027H76V-1155H946V-1311H1102V-1155H1668Q1564 -1219 1466 -1275L1538 -1369Q1672 -1297 1782 -1231L1724 -1155H1980V-1027H1102V-867H1818V13Q1818 241 1598 241Q1462 241 1292 239Q1284 185 1262 85Q1424 97 1550 97Q1662 97 1662 -11V-135H1102V239H946V-135H386V261ZM1270 -1699H1414V-1531H2006V-1403H1414V-1245H1270V-1403H778V-1245H634V-1403H48V-1531H634V-1699H778V-1531H1270V-1699ZM1662 -743H1102V-559H1662V-743ZM1102 -255H1662V-439H1102V-255ZM386 -559H946V-743H386V-559ZM386 -255H946V-439H386V-255Z"/>
</svg>